# xmcd CD database file
#
# Track frame offsets:
#	150
#	6975
#	24675
#	38175
#	46500
#	57075
#	68850
#	80175
#	93300
#	99975
#	125475
#	144600
#	162075
#	170100
#	200475
#
# Disc length: 2946 seconds
#
# Revision: 1
# Processed by: cddbd v1.5.1PL2 Copyright (c) Steve Scherf et al.
# Submitted via: freeDBTagger 0.8.2.1
#
DISCID=ca0b800f
DTITLE=EAGLES - A Conversation With the Eagles
DYEAR=1980
DGENRE=rock
TTITLE0=Introduction
TTITLE1=DH  We don't do interviews
TTITLE2=DH  Beginning of the Eagles
TTITLE3=DH  California
TTITLE4=DH  Desperado Movie
TTITLE5=DH  How are songs chosen？
TTITLE6=GF and DF  How Felder got in the band
TTITLE7=GF and DF  Already Gone
TTITLE8=GF and DF  Personnel changes make us better
TTITLE9=GF and DF Recording Sessions
TTITLE10=GF and DF John Barrick ／Band Name
TTITLE11=TBS What's it like being an Eagle？
TTITLE12=TBS It's fun being an Eagle
TTITLE13=JW   Cleveland and Running for President
TTITLE14=JW   Etchings
EXTD=
EXTT0=
EXTT1=
EXTT2=
EXTT3=
EXTT4=
EXTT5=
EXTT6=
EXTT7=
EXTT8=
EXTT9=
EXTT10=
EXTT11=
EXTT12=
EXTT13=
EXTT14=
PLAYORDER=
